<svg xmlns="http://www.w3.org/2000/svg" id="Layer_1" data-name="Layer 1" viewBox="0 0 24 24" width="300" height="300" version="1.1" xmlns:xlink="http://www.w3.org/1999/xlink" xmlns:svgjs="http://svgjs.dev/svgjs"><g width="100%" height="100%" transform="matrix(1,0,0,1,0,0)"><path d="m10,18c0-1.105.895-2,2-2s2,.895,2,2-.895,2-2,2-2-.895-2-2Zm-8.5,0c0,1.105.895,2,2,2s2-.895,2-2-.895-2-2-2-2,.895-2,2Zm1.5-8.5c0-.275.224-.5.5-.5h2.5v6h3v-6h6v-3H3.5c-1.93,0-3.5,1.57-3.5,3.5v5.5h3v-5.5Zm1.5-4.5c1.381,0,2.5-1.119,2.5-2.5S5.881,0,4.5,0s-2.5,1.119-2.5,2.5,1.119,2.5,2.5,2.5Zm.5,16h-3c-1.105,0-2,.895-2,2v1h7v-1c0-1.105-.895-2-2-2Zm15.5-1c1.105,0,2-.895,2-2s-.895-2-2-2-2,.895-2,2,.895,2,2,2Zm0-20h-12.26c.479.715.76,1.575.76,2.5,0,.171-.032.334-.05.5h11.55c.276,0,.5.225.5.5v8.5h-2v-2h-4v2h-4v3h13V3.5c0-1.93-1.57-3.5-3.5-3.5Zm1.5,21h-3c-1.105,0-2,.895-2,2v1h7v-1c0-1.105-.895-2-2-2Zm-8.5,0h-3c-1.105,0-2,.895-2,2v1h7v-1c0-1.105-.895-2-2-2Z" fill="#17726d" fill-opacity="1" data-original-color="#000000ff" stroke="none" stroke-opacity="1"/></g></svg>